<svg xmlns="http://www.w3.org/2000/svg" viewBox="0 0 160 64"><path d="M38.4 15.7h8.4l9.9 32.8h-7l-2.4-8.4h-9.6l-2.4 8.4h-6.9L38.4 15.7zM46.2 35.1l-2.7-10-1-3.9h-.1l-1 3.9-2.6 10H46.2zM60 17.3c0-2 1.6-3.6 3.6-3.6 2 0 3.6 1.6 3.6 3.6 0 2-1.6 3.6-3.6 3.6C61.6 20.8 60 19.3 60 17.3zM60.3 24.9l6.5-.2v23.8h-6.5V24.9zM72.5 13.7l6.5-.2v21.1l2-1.6 5.4-8.1h7.8l-8.5 10 9.4 13.6H87l-6-10.2-2 1.5v8.6h-6.5V13.7zM96.2 36.9c0-8.9 5.8-12.4 11.9-12.4S120 28 120 36.9c0 8.4-5.8 12.2-11.9 12.2S96.2 45.3 96.2 36.9zM113.3 36.8c0-5.1-2-7.5-5.2-7.5-3.2 0-5.2 2.4-5.2 7.5 0 5.1 2 7.5 5.2 7.5C111.3 44.3 113.3 41.9 113.3 36.8z"/><g><path d="M108.9 21l.2-.6c.4.2 1 .4 1.5.4.8 0 1.3-.4 1.3-1 0-1.4-2.8-1.1-2.8-2.8 0-1 .8-1.6 1.9-1.6.6 0 1.1.1 1.5.3l-.2.6c-.3-.2-.8-.3-1.4-.3-.7 0-1.1.4-1.1.9 0 1.3 2.8.9 2.8 2.9 0 1.1-.8 1.7-2.1 1.7C109.9 21.4 109.3 21.2 108.9 21zM113.7 18.4c0-1.9 1-3.1 2.6-3.1 1.7 0 2.4 1.5 2.2 3.1h-4c0 1.6.8 2.3 2 2.3.8 0 1.3-.2 1.7-.3l.1.6c-.4.2-1 .4-1.9.4C114.7 21.4 113.7 20.2 113.7 18.4zM117.8 17.8c0-.1 0-.1 0-.2 0-.8-.4-1.6-1.5-1.6-1.1 0-1.6.9-1.7 1.8H117.8zM119.7 19.8c0-1.4 1.1-1.6 2.3-1.6h1.2v-.8c0-.9-.1-1.5-1.3-1.5-.6 0-1.2.2-1.6.4l-.1-.6c.5-.3 1.2-.4 1.8-.4 1.8 0 2.1.7 2.1 2v2.5c0 .5 0 1 0 1.5h-.6l-.2-.7h0c-.4.5-1 .9-1.8.9C120.3 21.4 119.7 20.7 119.7 19.8zM123.2 19.5v-.7H122c-.7 0-1.5 0-1.5.9 0 .7.4 1 1 1C122.2 20.7 123.1 20.3 123.2 19.5zM126.6 20.5L126.6 20.5l-.2.8h-.6c0-.4 0-1 0-1.5v-7.3l.8 0v3.8h0c.4-.6 1-1 1.9-1 1.5 0 2.4 1.2 2.4 3 0 2-1.1 3.1-2.5 3.1C127.7 21.4 127.1 21.1 126.6 20.5zM130.1 18.3c0-1.4-.6-2.4-1.8-2.4-.7 0-1.4.5-1.7 1.2v2c0 .9.6 1.6 1.6 1.6C129.5 20.7 130.1 19.7 130.1 18.3zM132 18.4c0-1.9 1-3.1 2.6-3.1 1.7 0 2.4 1.5 2.2 3.1h-4c0 1.6.8 2.3 2 2.3.8 0 1.3-.2 1.7-.3l.1.6c-.4.2-1 .4-1.9.4C133 21.4 132 20.2 132 18.4zM136.1 17.8c0-.1 0-.1 0-.2 0-.8-.4-1.6-1.5-1.6-1.1 0-1.6.9-1.7 1.8H136.1zM138 18.4c0-1.9 1-3.1 2.5-3.1.8 0 1.4.4 1.7.8h0v-3.5l.8 0v7.4c0 .4 0 1 0 1.4h-.6l-.2-.9h0c-.4.6-1 1-1.9 1C138.9 21.4 138 20.2 138 18.4zM142.2 19.2v-2.2c-.3-.6-.9-1-1.6-1-1.2 0-1.8 1.1-1.8 2.4 0 1.3.6 2.3 1.8 2.3C141.5 20.7 142.2 20 142.2 19.2zM121.4 27.4h.9l1.3 5h0l.5-1.8 1-3.2h.8l1 3.2.5 1.8h0l1.3-5h.8l-1.8 5.9H127l-1.5-4.9h0l-1.5 4.9h-.8L121.4 27.4zM130.4 31.8c0-1.4 1.1-1.6 2.3-1.6h1.2v-.8c0-.9-.1-1.5-1.3-1.5-.6 0-1.2.2-1.6.4l-.1-.6c.5-.3 1.2-.4 1.8-.4 1.8 0 2.1.7 2.1 2v2.5c0 .5 0 1 0 1.5h-.6l-.2-.7h0c-.4.5-1 .9-1.8.9C131.1 33.4 130.4 32.7 130.4 31.8zM133.9 31.5v-.7h-1.1c-.7 0-1.5 0-1.5.9 0 .7.4 1 1 1C133 32.7 133.9 32.3 133.9 31.5zM136.6 24.5l.8 0v8.8h-.8V24.5zM139.3 24.5l.8 0v5.6l.7-.4 1.9-2.3h1l-2.2 2.5 2.5 3.3h-1l-2.1-2.9-.7.4v2.5h-.8V24.5z"/></g></svg>